<svg xmlns="http://www.w3.org/2000/svg" xmlns:xlink="http://www.w3.org/1999/xlink" id="I_heart_ndis" x="0px" y="0px" viewBox="0 0 728.84 728.37" style="enable-background:new 0 0 728.84 728.37;" xml:space="preserve"><style type="text/css">	.st0{clip-path:url(#SVGID_2_);fill:#6B2975;}	.st1{fill:#8CC63F;}	.st2{fill:#FFFFFF;}	.st3{fill:#6B2976;}</style><g>	<g>		<defs>			<rect id="SVGID_1_" x="1.44" y="1.23" width="725.96" height="725.92"></rect>		</defs>		<clipPath id="SVGID_2_">			<use xlink:href="#SVGID_1_" style="overflow:visible;"></use>		</clipPath>		<path class="st0" d="M353.6,1.47c107.55,0.17,200.36,38.12,269.88,109.21c64.54,66.02,103.68,156.09,103.06,255.16   c-1.24,197.89-161.54,361.06-364.47,359.84C161.39,724.47,1.69,561.37,2.34,362.14c0.31-95.08,37.68-188.04,108.88-257.16   C181.63,36.64,266.52,2.86,353.6,1.47"></path>	</g>	<g>		<path class="st1" d="M437.4,135.18c2.36-2.48,4.65-5.05,7.19-7.38c8.47-7.78,17.9-13.99,28.9-17.57   c15.97-5.2,31.39-3.45,46.49,3.57c6.46,3,11.48,7.63,16.16,12.74c9.59,10.46,16.69,22.37,20.44,36.12   c4.2,15.41,3.43,30.73-1.33,45.89c-4.02,12.78-10.43,24.34-18.22,35.17c-10.29,14.28-22.49,26.79-35.71,38.35   c-19.03,16.64-39.74,30.94-61.15,44.29c-2.21,1.38-3.67,1.39-5.91-0.01c-18.41-11.47-36.32-23.64-53.1-37.41   c-14.83-12.17-28.65-25.35-40.41-40.57c-8.67-11.24-15.93-23.27-20.67-36.73c-3.92-11.12-5.73-22.55-4.86-34.33   c0.94-12.68,4.94-24.41,11.49-35.28c4.76-7.91,10.62-14.93,17.38-21.23c3.19-2.98,6.82-5.21,10.73-7.06   c9.6-4.53,19.66-6.98,30.31-6.48c10.65,0.5,20.46,3.79,29.62,9.16c7.86,4.61,14.77,10.36,20.89,17.1c0.43,0.47,0.86,0.93,1.3,1.39   C437.04,135.01,437.19,135.06,437.4,135.18"></path>		<path class="st2" d="M380.58,582.28c-1.11,1-2.18,2.02-3.3,2.98c-6.87,5.86-14.82,9.47-23.66,11.14   c-10.91,2.06-21.67,1.43-32.1-2.43c-12.7-4.7-21.8-13.51-28.12-25.35c-4.4-8.24-6.97-17.08-8.37-26.28   c-1.79-11.73-1.82-23.49-0.34-35.24c1.57-12.52,5.02-24.46,11.83-35.21c8.32-13.13,19.9-21.82,35.24-24.99   c12.2-2.52,24.14-1.88,35.46,3.92c3.15,1.61,6.07,3.59,8.84,5.79c0.41,0.33,0.71,0.89,1.58,0.83v-2.26c0-21.96,0-43.92,0-65.89   c0-3.57,0.38-3.98,3.99-4.63c3.07-0.56,6.19-0.55,9.28-0.64c6.14-0.16,12.28-0.13,18.41,0.36c1.41,0.11,2.81,0.3,4.15,0.79   c1.63,0.6,2.09,1.26,2.14,2.98c0.02,0.56,0,1.13,0,1.69c0,55.43,0,110.87,0,166.3c0,1.34,0.05,2.68,0.29,4.01   c0.52,2.85,1.76,4.13,4.62,4.81c1.11,0.27,2.23,0.27,3.36,0.31c1.94,0.07,2.71,0.66,3.02,2.56c0.24,1.46,0.4,2.95,0.41,4.42   c0.01,5.22,0.22,10.45-0.32,15.66c-0.07,0.7-0.23,1.39-0.37,2.08c-0.28,1.46-1.16,2.32-2.57,2.8c-3.35,1.15-6.78,1.96-10.28,2.41   c-4.76,0.62-9.55,0.96-14.34,0.21c-8.16-1.26-14.59-5.03-18.4-12.62C380.94,582.62,380.76,582.48,380.58,582.28"></path>		<path class="st2" d="M274.2,218.66c0,23.8,0,47.59,0,71.39c0,2.89-0.25,2.56,2.64,2.57c4.59,0.01,9.18,0,13.77,0   c0.35,0,0.71,0,1.06,0c3.55,0.05,4.37,0.84,4.85,4.42c0.42,3.16,0.4,6.34,0.36,9.51c-0.06,5.01,0.27,10.03-0.35,15.02   c-0.04,0.28-0.05,0.56-0.09,0.84c-0.47,3.31-1.33,4.05-4.7,4.05c-28.81,0-57.62,0-86.43,0c-0.49,0-0.99-0.01-1.48-0.03   c-1.35-0.05-2.23-0.75-2.68-2.02c-0.53-1.48-0.73-3.02-0.78-4.57c-0.24-6.92-0.23-13.83-0.01-20.75c0.04-1.4,0.24-2.81,0.67-4.16   c0.43-1.35,1.26-2.17,2.74-2.22c1.06-0.03,2.11-0.1,3.17-0.1c4.73-0.01,9.46,0,14.19-0.01c1.65,0,1.65-0.03,1.68-1.59   c0.01-0.35,0-0.71,0-1.06c0-47.52,0-95.05-0.01-142.57c0-2.94,0.4-2.51-2.61-2.53c-5.08-0.03-10.17,0-15.25-0.01   c-2.81-0.01-3.74-0.83-4.26-3.62c-0.38-2.02-0.45-4.07-0.45-6.11c-0.01-5.51,0-11.02,0.08-16.52c0.02-1.54,0.23-3.1,0.54-4.62   c0.46-2.23,1.41-2.93,3.68-3.02c0.56-0.02,1.13-0.01,1.7-0.01h84.74c0.35,0,0.71,0,1.06,0c3.07,0.04,4,0.83,4.41,3.9   c0.3,2.24,0.47,4.49,0.45,6.75c-0.03,5.08-0.03,10.17-0.08,15.25c-0.02,1.62-0.19,3.24-0.57,4.82c-0.58,2.44-1.49,3.15-4.01,3.15   c-5.23,0.02-10.45,0.01-15.68,0.01c-0.49,0-0.99,0.01-1.48,0.01c-0.63-0.01-0.88,0.32-0.87,0.92c0.01,0.57,0,1.13,0,1.7   C274.2,171.21,274.2,194.94,274.2,218.66"></path>		<path class="st2" d="M178.38,462.62c1.06-1.04,1.95-1.92,2.86-2.78c7.84-7.38,17.17-11.83,27.74-13.51   c10.26-1.63,20.44-0.96,30.28,2.52c14.72,5.2,23.68,15.79,27.91,30.6c1.95,6.83,2.68,13.85,2.78,20.92   c0.4,29.72,0.08,59.45,0.17,89.17c0.01,2.91-0.64,3.76-3.51,4.35c-1.58,0.33-3.21,0.51-4.83,0.58c-7.34,0.34-14.67,0.29-22.01,0   c-1.9-0.08-3.8-0.29-5.64-0.83c-1.36-0.4-2.17-1.25-2.13-2.76c0.02-0.63-0.01-1.27-0.01-1.91c0-26.34,0.03-52.68-0.03-79.02   c-0.01-4.79-0.27-9.58-1.07-14.33c-1.4-8.33-6.22-13.35-14.4-15.21c-7.55-1.71-14.98-1.15-22.32,1.24   c-7.99,2.6-12.05,8.1-12.54,16.45c-0.31,5.29-0.49,10.57-0.5,15.87c-0.02,24.93-0.01,49.85-0.01,74.78c0,0.49,0.01,0.99,0,1.48   c-0.06,2.04-0.58,2.8-2.52,3.39c-2.45,0.75-5,0.84-7.54,0.93c-6.7,0.22-13.41,0.19-20.11-0.09c-1.55-0.06-3.1-0.24-4.62-0.52   c-2.74-0.51-3.26-1.22-3.26-3.98c0-25.21-0.01-50.42,0-75.63c0-11.57-0.24-23.15-0.64-34.71c-0.3-8.74-0.62-17.48-1.38-26.2   c-0.22-2.56,0.55-3.67,3.04-4.28c2.55-0.62,5.16-0.78,7.77-0.79c6.21-0.01,12.42-0.33,18.62,0.31c0.42,0.04,0.85,0.06,1.26,0.13   c3.28,0.52,4.42,1.5,5.09,4.75C177.45,456.47,177.85,459.41,178.38,462.62"></path>		<path class="st2" d="M552.14,445.58c12.15,0,23.84,2.12,34.88,7.38c3.58,1.71,6.96,3.74,10.14,6.1c2.08,1.55,2.44,2.64,1.67,5.1   c-0.6,1.9-1.53,3.65-2.54,5.34c-2.34,3.94-4.75,7.84-7.17,11.74c-0.74,1.2-1.6,2.32-2.66,3.28c-1.54,1.4-2.81,1.59-4.6,0.54   c-2.37-1.39-4.73-2.8-7.21-4.01c-6.64-3.23-13.66-4.96-21.03-4.95c-4.94,0.01-9.86,0.46-14.49,2.51c-1.9,0.84-3.56,1.99-4.95,3.54   c-3.81,4.27-3.34,10.03,1.1,13.63c2.33,1.89,5.01,3.14,7.78,4.23c5.52,2.17,11.24,3.71,16.89,5.46   c6.81,2.11,13.55,4.38,19.91,7.65c5.06,2.6,9.7,5.77,13.55,10c5.33,5.84,8.2,12.8,8.9,20.61c1.24,13.93-2.69,26.24-12.09,36.66   c-6.43,7.12-14.56,11.47-23.69,14.1c-6.48,1.87-13.11,2.72-19.83,2.96c-11.09,0.4-21.97-0.88-32.56-4.28   c-7.98-2.56-15.45-6.16-22.04-11.44c-2.53-2.02-2.89-3.19-1.94-6.24c0.13-0.4,0.26-0.81,0.43-1.19   c2.71-5.91,5.85-11.58,9.48-16.97c0.27-0.41,0.6-0.79,0.92-1.16c2.28-2.6,3.58-2.78,6.52-0.9c8.16,5.23,16.91,9.03,26.51,10.65   c7.12,1.2,14.2,1.05,21.14-1.19c2.3-0.74,4.42-1.84,6.3-3.39c5.3-4.38,5.12-11.23-0.43-15.31c-3.52-2.59-7.61-3.97-11.71-5.29   c-6.57-2.11-13.29-3.78-19.82-6.02c-7.16-2.46-14.08-5.42-20.16-10.05c-8.82-6.71-13.52-15.65-14.66-26.61   c-0.8-7.64-0.08-15.09,2.76-22.24c3.68-9.26,10.11-16.2,18.59-21.29c7.81-4.68,16.33-7.21,25.32-8.35   C544.95,445.73,548.54,445.56,552.14,445.58"></path>		<path class="st2" d="M442.05,521.41v-66.28c0-0.42,0-0.85,0-1.27c0.01-3.78,0.43-4.4,4.19-4.95c2.5-0.36,5.06-0.52,7.59-0.53   c6.7-0.04,13.41-0.31,20.1,0.32c1.34,0.12,2.65,0.34,3.94,0.73c1.46,0.44,2.25,1.39,2.26,2.94c0,0.56,0.01,1.13,0.01,1.69   c0,44.96,0,89.92,0,134.88c0,3.88-0.66,4.59-4.51,5.18c-2.59,0.4-5.2,0.47-7.81,0.5c-7.12,0.09-14.25,0.33-21.35-0.49   c-0.28-0.03-0.56-0.04-0.84-0.09c-2.88-0.52-3.56-1.29-3.57-4.24c-0.02-10.59-0.01-21.17-0.01-31.76V521.41z"></path>		<path class="st1" d="M460.5,432.71c-13.47-0.01-24.48-10.99-24.39-24.31c0.09-13.57,11.04-24.52,24.58-24.39   c14.82,0.14,24.61,12.41,24.37,24.8C484.82,421.84,473.9,432.99,460.5,432.71"></path>		<path class="st3" d="M377.64,520.12c0,7.48,0.04,14.96-0.02,22.44c-0.02,2.67-0.12,5.35-0.58,8c-0.76,4.46-3.03,7.81-6.97,10.06   c-3.92,2.24-8.15,3.51-12.6,4.05c-5.53,0.67-10.98,0.26-16.26-1.66c-5.97-2.16-10.03-6.37-12.9-11.89   c-2.5-4.81-3.92-9.96-4.66-15.29c-1.42-10.21-1.1-20.39,0.8-30.52c0.77-4.1,1.98-8.07,3.82-11.83   c5.01-10.23,13.27-15.2,24.59-15.13c10.02,0.07,17.78,4.71,24.17,12.08c0.64,0.74,0.6,1.53,0.6,2.37c0,6.42,0,12.84,0,19.26   V520.12z"></path>	</g></g></svg>